<?xml version="1.0" encoding="UTF-8"?>
<svg id="uuid-53c493eb-5054-40b4-8f7b-3d5f208ee375" xmlns="http://www.w3.org/2000/svg" version="1.1" viewBox="0 0 600 600">
  <!-- Generator: Adobe Illustrator 30.2.1, SVG Export Plug-In . SVG Version: 2.1.1 Build 1)  -->
  <defs>
    <style>
      .st0 {
        fill: #fff;
      }

      .st1 {
        fill: #09a6e9;
      }
    </style>
  </defs>
  <circle class="st1" cx="300" cy="300" r="300"/>
  <path class="st0" d="M300,501.25c-49.58,0-93.65-3.13-132.19-9.38-38.54-6.25-70.73-12.92-96.56-20-5.83-1.67-10.83-4.79-15-9.38s-6.25-10-6.25-16.25c0-5,2.19-8.96,6.56-11.88,4.38-2.92,9.27-3.54,14.69-1.88,20,5.83,39.06,10.52,57.19,14.06s31.77,6.15,40.94,7.81c-22.92-18.75-40.42-42.4-52.5-70.94s-18.13-56.35-18.13-83.44c0-49.58,3.13-93.65,9.38-132.19,6.25-38.54,12.92-70.73,20-96.56,1.67-5.83,4.79-10.83,9.38-15s10-6.25,16.25-6.25c5,0,8.96,2.19,11.88,6.56s3.54,9.27,1.88,14.69c-5.83,20-10.42,38.85-13.75,56.56s-5.63,31.15-6.88,40.31c20-22.92,43.75-40.21,71.25-51.88s54.79-17.5,81.88-17.5c49.58,0,93.65,3.13,132.19,9.38,38.54,6.25,70.73,12.92,96.56,20,5.83,1.67,10.83,4.79,15,9.38s6.25,10,6.25,16.25c0,5-2.19,8.96-6.56,11.88s-9.27,3.54-14.69,1.88c-20-5.83-38.85-10.52-56.56-14.06s-31.15-5.94-40.31-7.19c23.75,20.42,41.25,44.38,52.5,71.88s16.88,54.79,16.88,81.88c0,49.58-3.13,93.65-9.38,132.19s-12.92,70.73-20,96.56c-1.67,5.83-4.79,10.83-9.38,15s-10,6.25-16.25,6.25c-5,0-9.06-2.19-12.19-6.56s-3.85-9.27-2.19-14.69c5.83-20,10.52-38.85,14.06-56.56s6.15-31.15,7.81-40.31c-21.25,24.17-45.42,41.77-72.5,52.81s-54.17,16.56-81.25,16.56h0ZM415.94,415.94c31.88-31.88,47.81-70.52,47.81-115.94s-15.94-84.06-47.81-115.94-70.52-47.81-115.94-47.81-84.06,15.94-115.94,47.81-47.81,70.52-47.81,115.94,15.94,84.06,47.81,115.94,70.52,47.81,115.94,47.81,84.06-15.94,115.94-47.81Z"/>
  <path class="st0" d="M430.46,299.33c0,11.96-4.05,21.9-12.15,29.83s-18.04,11.9-29.81,11.9c-8.58,0-16.29-2.26-23.13-6.78s-11.77-10.52-14.81-18h-69.88l42.98,34.89c2.91-1.32,5.87-2.39,8.86-3.21,2.99-.83,6.04-1.24,9.15-1.24,11.84,0,21.83,4.03,29.96,12.1,8.14,8.07,12.2,17.97,12.2,29.7s-4.06,21.85-12.19,29.88c-8.13,8.04-18.06,12.05-29.8,12.05s-21.64-4.03-29.68-12.08-12.07-18-12.07-29.84c0-2.27.17-4.52.51-6.74s.88-4.42,1.61-6.59l-59.16-48.52c-3.57,4.85-8.1,8.6-13.58,11.23s-11.57,3.94-18.28,3.94c-11.69,0-21.56-4.02-29.6-12.06-8.04-8.04-12.06-18-12.06-29.86s4.02-21.67,12.06-29.73,17.91-12.08,29.6-12.08c6.81,0,12.98,1.37,18.51,4.1s10.08,6.42,13.65,11.07l59.06-48.38c-.71-2.17-1.28-4.36-1.7-6.58s-.63-4.58-.63-7.09c0-11.78,4.03-21.68,12.08-29.69s17.93-12.02,29.64-12.02,21.71,4.01,29.83,12.03c8.13,8.02,12.19,17.91,12.19,29.68s-4.07,21.78-12.2,29.88c-8.14,8.1-18.12,12.15-29.96,12.15-3.11,0-6.16-.4-9.15-1.19-2.99-.79-5.94-1.91-8.83-3.36l-43.01,35.3h69.28c3.21-7.71,8.21-14.09,15.01-19.13,6.8-5.04,14.68-7.57,23.63-7.57,11.71,0,21.62,4.05,29.72,12.16s12.15,18.06,12.15,29.84h0ZM400.43,299.1c0-3.4-1.21-6.28-3.62-8.63s-5.26-3.53-8.55-3.53-6.14,1.17-8.57,3.5c-2.43,2.34-3.64,5.21-3.64,8.63s1.26,6.12,3.78,8.57,5.31,3.67,8.37,3.67c3.44,0,6.34-1.24,8.69-3.71,2.36-2.48,3.53-5.31,3.53-8.51h.01ZM354.11,388.51c0-3.4-1.15-6.28-3.44-8.63s-5.11-3.53-8.45-3.53-6.22,1.17-8.65,3.51-3.64,5.21-3.64,8.63,1.26,6.12,3.77,8.57c2.51,2.45,5.3,3.67,8.37,3.67,3.6,0,6.5-1.24,8.71-3.71s3.32-5.31,3.32-8.51h.01ZM354.11,211.26c0-3.36-1.15-6.2-3.44-8.52s-5.11-3.47-8.45-3.47-6.22,1.16-8.65,3.48c-2.43,2.32-3.64,5.18-3.64,8.58s1.26,6.25,3.77,8.55c2.51,2.3,5.3,3.45,8.37,3.45,3.6,0,6.5-1.17,8.71-3.52s3.32-5.2,3.32-8.56h.01ZM223.34,299.92c0-3.4-1.17-6.28-3.51-8.63s-5.16-3.53-8.44-3.53-6.13,1.17-8.52,3.51-3.59,5.21-3.59,8.63,1.22,6.12,3.67,8.57,5.24,3.67,8.38,3.67c3.52,0,6.4-1.24,8.65-3.71s3.37-5.31,3.37-8.51h0Z"/>
</svg>